<svg xmlns="http://www.w3.org/2000/svg" viewBox="0 0 900 560" font-family="Arial">
  <style>.b{fill:#1b6e3c;rx:8}.b2{fill:#2e8b57}.b3{fill:#5aa876}.t{fill:#fff;font-size:14px;text-anchor:middle;font-weight:bold}.s{fill:#fff;font-size:12px;text-anchor:middle}.l{stroke:#8aa;stroke-width:2}</style>
  <rect x="350" y="20" width="200" height="52" class="b" rx="8"/><text x="450" y="42" class="t">KEPALA DINAS</text><text x="450" y="60" class="s">(Nama Kepala Dinas)</text>
  <line x1="450" y1="72" x2="450" y2="105" class="l"/>
  <rect x="350" y="105" width="200" height="46" class="b2" rx="8"/><text x="450" y="126" class="t">SEKRETARIAT</text><text x="450" y="143" class="s">Sekretaris Dinas</text>
  <line x1="450" y1="151" x2="450" y2="180" class="l"/><line x1="150" y1="180" x2="750" y2="180" class="l"/>
  <line x1="150" y1="180" x2="150" y2="205" class="l"/><line x1="450" y1="180" x2="450" y2="205" class="l"/><line x1="750" y1="180" x2="750" y2="205" class="l"/>
  <rect x="40" y="205" width="220" height="64" class="b3" rx="8"/><text x="150" y="231" class="t">BIDANG TATA LINGKUNGAN</text><text x="150" y="250" class="s">dan Penataan Hukum LH</text>
  <rect x="340" y="205" width="220" height="64" class="b3" rx="8"/><text x="450" y="231" class="t">BIDANG PENGELOLAAN</text><text x="450" y="250" class="s">Sampah dan Limbah B3</text>
  <rect x="640" y="205" width="220" height="64" class="b3" rx="8"/><text x="750" y="231" class="t">BIDANG PENGENDALIAN</text><text x="750" y="250" class="s">Pencemaran &amp; Kerusakan LH</text>
  <line x1="150" y1="269" x2="150" y2="300" class="l"/><line x1="450" y1="269" x2="450" y2="300" class="l"/><line x1="750" y1="269" x2="750" y2="300" class="l"/>
  <rect x="40" y="300" width="220" height="46" fill="#88b79b" rx="8"/><text x="150" y="327" class="s">Sub-Koordinator / Pelaksana</text>
  <rect x="340" y="300" width="220" height="46" fill="#88b79b" rx="8"/><text x="450" y="327" class="s">Sub-Koordinator / Pelaksana</text>
  <rect x="640" y="300" width="220" height="46" fill="#88b79b" rx="8"/><text x="750" y="327" class="s">Sub-Koordinator / Pelaksana</text>
  <rect x="250" y="400" width="400" height="46" fill="#c8ddc8" rx="8"/><text x="450" y="422" style="fill:#28502e;font-size:13px;text-anchor:middle">UPTD (Laboratorium Lingkungan, TPA, dll.)</text>
  <line x1="450" y1="346" x2="450" y2="400" class="l"/>
  <text x="450" y="520" style="fill:#666;font-size:13px;text-anchor:middle">* Bagan placeholder — sesuaikan dengan Peraturan Bupati tentang SOTK DLH Kabupaten Kepahiang</text>
</svg>